<?xml version="1.0" encoding="UTF-8"?>
<svg xmlns="http://www.w3.org/2000/svg" width="120" height="43" viewBox="0 0 120 43" fill="none">
  <path d="M19.2628 0C10.1693 0 2.85696 2.03457 0 2.99479C0.102749 3.06622 0.154123 3.17337 0.154123 3.28053C0.154123 3.31624 0.154123 3.35196 0.102749 3.38767C0.102749 3.4591 0.051374 3.56625 0.051374 3.63768V42.4268C0.051374 42.4625 0.051374 42.4983 0.051374 42.534C0.051374 42.6054 0.051374 42.6769 0.102749 42.7483C0.154123 42.784 0.154123 42.8197 0.205498 42.8554C0.256872 42.8911 0.308247 42.9269 0.359621 42.9269C0.410996 42.9626 0.41937 42.9626 0.470744 42.9626C2.70459 42.1452 9.76568 40.11 19.0706 40.11C29.5397 40.11 33.4176 42.9983 33.8628 43.0698H34.0166C34.068 43.0698 34.1193 43.0698 34.1193 43.034C34.1707 43.034 34.222 42.9983 34.2734 42.9626C34.3247 42.9269 34.3761 42.8911 34.3761 42.8197C34.4275 42.784 34.4275 42.7125 34.4788 42.6412C35.1975 41.4666 38.6102 34.4663 38.6102 24.1435C38.5588 10.102 26.5843 0 19.2628 0ZM32.9724 39.8599C30.5132 38.362 26.7381 36.5782 20.5454 36.5782C13.5341 36.5782 6.57012 38.1119 4.06954 38.9294V5.88622C7.13588 4.99744 12.8154 3.96006 19.2628 3.96006C25.1965 3.96006 34.3761 12.7422 34.3761 24.1078C34.4275 32.932 31.5958 37.8241 32.9724 39.8599Z" fill="black"/>
  <path d="M66.9622 23.6505H55.9851V30.9771H68.0114V34.2524H52.1875V9.0861H67.7833V12.3972H55.9851V20.4109H66.9622V23.6505Z" fill="black"/>
  <path d="M74.5642 34.2524H70.9282V9.0861H74.5642V34.2524Z" fill="black"/>
  <path d="M94.1872 34.2524H90.7745L80.231 15.5042V34.2524H76.5437V9.0861H80.6761L90.3807 26.4202V9.0861H94.1872V34.2524Z" fill="black"/>
  <path d="M120 34.2524H115.89L113.389 27.2019H102.703L100.304 34.2524H96.5483L106.51 9.0861H110.117L120 34.2524ZM112.006 23.8984L108.046 13.4677L104.135 23.8984H112.006Z" fill="black"/>
</svg> 